<svg width="240" height="240" viewBox="0 0 240 240" fill="none" xmlns="http://www.w3.org/2000/svg">
<path d="M71 164.8V181.804H77.1375V164.619C77.1375 162.993 78.4557 161.675 80.0814 161.675H88.8335V155.536H80.2624C75.1468 155.536 71 159.684 71 164.8Z" fill="#005AAA"/>
<path d="M110.87 155.536L104.74 167.232L97.9641 155.536H90.8757L101.36 173.645L100.703 174.823C100.366 175.464 99.7057 175.862 98.9838 175.862H94.644V182H98.9838C101.991 182 104.731 180.347 106.133 177.685L117.841 155.536H110.87Z" fill="#005AAA"/>
<path d="M124.082 170.872L127.868 163.638C128.434 162.445 129.654 161.675 130.974 161.675H132.802C133.228 161.675 133.574 162.02 133.574 162.446V170.872H124.082ZM135.08 155.536H130.974C127.299 155.536 123.903 157.682 122.377 160.897L111.431 181.816H118.356L120.87 177.01H133.574V181.816H139.712V160.168C139.712 157.61 137.638 155.536 135.08 155.536Z" fill="#005AAA"/>
<path d="M164.57 155.536H150.673C148.115 155.536 146.041 157.61 146.041 160.168V181.758H152.179V162.441C152.179 162.018 152.522 161.675 152.945 161.675H162.298C162.721 161.675 163.064 162.018 163.064 162.441V181.746H169.202V160.168C169.202 157.61 167.128 155.536 164.57 155.536Z" fill="#005AAA"/>
<path d="M117.057 75.6544C106.253 75.7929 71 77.1546 71 88.8735C71 101.472 111.707 102.111 119.868 102.111C128.029 102.111 168.736 101.472 168.736 88.8735C168.736 83.2875 161.392 80.7295 155.867 79.2907C149.842 77.7232 141.704 76.5845 132.719 76.0293C132.865 78.416 132.968 80.8679 133.032 83.3609C149.452 84.4308 158.137 87.2006 160.807 88.884C157.19 91.2199 143.249 94.8074 119.868 94.8074C96.4463 94.8074 82.497 91.2072 78.9098 88.872C82.316 86.6364 95.075 83.2404 117.151 82.9576C119.167 82.9321 120.78 81.2764 120.755 79.2593C120.729 77.2586 119.099 75.6544 117.105 75.6544C117.089 75.6544 117.073 75.6544 117.057 75.6544" fill="url(#paint0_linear_1407_3730)"/>
<path d="M106.632 88.8734C106.632 97.0346 107.27 137.746 119.868 137.746C125.453 137.746 128.01 130.406 129.447 124.884C131.017 118.855 132.156 110.709 132.711 101.714C130.005 101.876 127.503 101.975 125.381 102.032C124.311 118.458 121.541 127.146 119.857 129.817C117.522 126.199 113.935 112.257 113.935 88.8734C113.935 65.4669 117.529 51.5198 119.865 47.9188C122.106 51.4128 125.601 64.7284 125.793 87.0358C125.81 89.0417 127.441 90.6563 129.444 90.6563H129.475C131.492 90.6384 133.113 88.9893 133.095 86.973C132.993 75.0445 131.922 63.868 130.079 55.5024C127.75 44.9267 124.505 40.0006 119.868 40.0006C107.27 40.0006 106.632 80.7121 106.632 88.8734" fill="url(#paint1_linear_1407_3730)"/>
<defs>
<linearGradient id="paint0_linear_1407_3730" x1="71.0001" y1="88.8827" x2="168.736" y2="88.8827" gradientUnits="userSpaceOnUse">
<stop stop-color="#45C3F3"/>
<stop offset="0.5" stop-color="#1671C2"/>
<stop offset="0.959876" stop-color="#2056AE"/>
<stop offset="1" stop-color="#2056AE"/>
</linearGradient>
<linearGradient id="paint1_linear_1407_3730" x1="119.864" y1="137.746" x2="119.864" y2="40.0005" gradientUnits="userSpaceOnUse">
<stop stop-color="#2056AE"/>
<stop offset="0.25" stop-color="#2056AE"/>
<stop offset="0.280093" stop-color="#2056AE"/>
<stop offset="0.625" stop-color="#A32B9B"/>
<stop offset="1" stop-color="#ED1443"/>
</linearGradient>
</defs>
</svg>
